<?xml version="1.0" standalone="no"?>
<!DOCTYPE svg PUBLIC "-//W3C//DTD SVG 20010904//EN"
 "http://www.w3.org/TR/2001/REC-SVG-20010904/DTD/svg10.dtd">
<svg version="1.0" xmlns="http://www.w3.org/2000/svg"
 width="429.000000pt" height="429.000000pt" viewBox="0 0 429.000000 429.000000"
 preserveAspectRatio="xMidYMid meet">
<metadata>
Created by potrace 1.14, written by Peter Selinger 2001-2017
</metadata>
<g transform="translate(0.000000,429.000000) scale(0.100000,-0.100000)"
fill="#000000" stroke="none">
<path d="M524 4275 c-202 -44 -365 -170 -453 -348 -75 -154 -71 -54 -71 -1782
0 -1364 2 -1555 16 -1622 47 -230 211 -414 438 -491 l81 -27 1605 0 1605 0 89
29 c203 67 349 212 423 421 l28 80 0 1605 0 1605 -29 89 c-66 202 -214 351
-417 422 l-84 29 -1585 2 c-1295 1 -1596 -1 -1646 -12z m675 -1463 c233 -61
404 -221 473 -442 20 -65 23 -95 22 -230 0 -141 -3 -162 -26 -228 -38 -106
-83 -176 -168 -263 -86 -86 -172 -135 -305 -171 -74 -20 -109 -22 -447 -26
l-368 -4 0 697 0 697 368 -5 c337 -3 374 -5 451 -25z m1046 6 c3 -13 50 -225
105 -472 55 -247 101 -451 103 -452 1 -1 59 210 128 469 l126 472 181 3 c165
2 181 1 186 -15 3 -10 58 -223 122 -473 63 -250 117 -456 118 -457 1 -1 51
211 112 470 l110 472 182 3 c142 2 182 0 182 -10 0 -7 -83 -319 -184 -693
l-183 -680 -201 -3 -201 -2 -14 47 c-8 27 -63 227 -123 445 -60 218 -112 394
-115 390 -4 -4 -57 -196 -119 -427 -62 -231 -115 -428 -118 -438 -4 -16 -20
-17 -205 -15 l-201 3 -173 640 c-94 352 -179 664 -187 693 l-15 52 190 0 c187
0 189 0 194 -22z"/>
<path d="M740 2146 l0 -436 115 0 c133 0 199 12 275 50 142 71 209 216 198
423 -11 189 -90 307 -247 368 -45 18 -83 23 -198 27 l-143 4 0 -436z"/>
</g>
</svg>
