<?xml version="1.0" standalone="no"?>
<!DOCTYPE svg PUBLIC "-//W3C//DTD SVG 20010904//EN"
 "http://www.w3.org/TR/2001/REC-SVG-20010904/DTD/svg10.dtd">
<svg version="1.0" xmlns="http://www.w3.org/2000/svg"
 width="429.000000pt" height="429.000000pt" viewBox="0 0 429.000000 429.000000"
 preserveAspectRatio="xMidYMid meet">
<metadata>
Created by potrace 1.14, written by Peter Selinger 2001-2017
</metadata>
<g transform="translate(0.000000,429.000000) scale(0.100000,-0.100000)"
fill="#000000" stroke="none">
<path d="M524 4275 c-202 -44 -365 -170 -453 -348 -75 -154 -71 -54 -71 -1782
0 -1364 2 -1555 16 -1622 47 -230 211 -414 438 -491 l81 -27 1605 0 1605 0 89
29 c203 67 349 212 423 421 l28 80 0 1605 0 1605 -29 89 c-66 202 -214 351
-417 422 l-84 29 -1585 2 c-1295 1 -1596 -1 -1646 -12z m835 -843 c66 -36 126
-105 171 -195 79 -162 75 -104 75 -1092 0 -988 4 -930 -75 -1092 -45 -90 -105
-159 -171 -195 -44 -23 -45 -23 -429 -23 l-385 0 -3 1300 c-1 715 0 1306 3
1313 4 11 78 13 387 10 379 -3 383 -3 427 -26z m961 -1137 l0 -1165 108 0
c127 0 155 12 198 85 55 94 54 75 54 1203 l0 1042 175 0 175 0 0 -1165 0
-1165 109 0 c135 0 159 13 211 114 l35 69 3 1074 3 1073 177 -2 177 -3 0 -900
c0 -985 1 -972 -61 -1166 -76 -240 -222 -444 -366 -512 -82 -39 -153 -47 -405
-47 l-233 0 0 45 0 45 -62 -34 c-88 -48 -148 -56 -415 -56 l-233 0 0 1315 0
1315 175 0 175 0 0 -1165z"/>
<path d="M900 2145 l0 -1015 105 0 c73 0 115 5 134 14 35 18 75 78 98 147 17
50 18 109 18 854 0 751 -1 803 -18 855 -11 30 -31 71 -45 91 -44 61 -66 69
-186 69 l-106 0 0 -1015z"/>
</g>
</svg>
